<svg version="1.2" xmlns="http://www.w3.org/2000/svg" viewBox="0 0 1582 1498" width="1582" height="1498">
	<title>Microchip_logo-svg</title>
	<defs>
		<clipPath clipPathUnits="userSpaceOnUse" id="cp1">
			<path d="m-0.36-6.65h6475.7v1508.23h-6475.7z"/>
		</clipPath>
	</defs>
	<style>
		.s0 { fill: #ffffff } 
		.s1 { fill: #ee2223 } 
	</style>
	<g id="layer1">
		<g id="g38">
			<g id="Clip-Path: g40" clip-path="url(#cp1)">
				<g id="g40">
					<g id="g78">
						<path id="path80" class="s0" d="m1568.9 847c-50.9 363.9-380.6 644.8-780.1 644.8-434.7 0-787.1-332.6-787.1-742.9 0-410.3 352.4-742.9 787.1-742.9 80 0 157.1 11.4 229.8 32.3z"/>
					</g>
					<g id="g82">
						<path id="path84" fill-rule="evenodd" class="s1" d="m1581.4 808.3c-2.9 89.3-16.7 108.1-43.6 170.1l-0.1 2.4c0 0-262.9-417-403-636.9-19.5-30.5-77.9-95-142.8-2.7-59 83.9-134.3 189.8-134.3 189.8l477.8 755.1c-145.1 135.3-341.1 215.5-560.6 211.6-226.3-3.9-424.7-94.2-565.8-242.2 0 0 204.2-282.4 206.4-285.6 34.7-52.5-11-104.4-11-104.4l-152.2-238.3-224.6 315.2c-18.6-65.9-28-135.3-26.7-206.8 7.2-413.3 365.4-742.2 800-734.7 120.5 2.1 214.2 25.9 315.5 73.7zm-981.3-466.5c-19.5-30.5-77.9-95-142.8-2.6-59 83.9-134.3 189.7-134.3 189.7l404.7 636.9c0 0 57.3 122.2 135.1 16.4 13-17.7 140.2-203.4 140.2-203.4 0 0-262.8-417.1-402.9-637z"/>
					</g>
					<g id="g86">
					</g>
				</g>
			</g>
		</g>
	</g>
</svg>